<?xml version="1.0" encoding="utf-8"?>
<svg version="1.1" id="Слой_1" xmlns="http://www.w3.org/2000/svg" xmlns:xlink="http://www.w3.org/1999/xlink" x="0px" y="0px"
	 viewBox="0 0 283.5 192.4" style="enable-background:new 0 0 283.5 192.4;" xml:space="preserve">
<style type="text/css">
	.st0{fill:#FFFFFF;}
</style>
<title>vodafone</title>
<g id="Слой_2_1_">
	<g id="Logo">
		<path class="st0" d="M208.6,65.4c0,35.9-29.1,65.1-65.1,65.1s-65.1-29.1-65.1-65.1c0-35.9,29.1-65.1,65.1-65.1
			C179.5,0.3,208.6,29.5,208.6,65.4C208.6,65.4,208.6,65.4,208.6,65.4z"/>
		<path class="st0" d="M167.3,4.5c1.3,0.5,2.5,1,3.7,1.6l0.9,0.4c32.4,15.4,46.2,54.2,30.7,86.6s-54.2,46.2-86.6,30.7
			S69.9,69.7,85.3,37.3C99.9,6.6,135.6-7.6,167.3,4.5L167.3,4.5z"/>
		<g>
			<path class="st0" d="M118.6,91.2c4.5,4.6,10,7.9,16.1,9.7c1.8,0.5,3.7,0.9,5.6,1.2c9.3,1.1,18.6-1.5,26-7.3
				c8.4-6.6,13.2-16.7,13.2-27.3c0-0.4,0-0.9,0-1.3c-0.1-3.2-0.6-6.4-1.5-9.5c-0.9-3-2.2-5.8-3.9-8.4c-0.2-0.3-0.4-0.5-0.5-0.8
				c-2.4-3.4-5.5-6.2-9.1-8.4c-4.2-2.6-8.9-4.4-13.8-5.4c0-0.3-0.1-0.5-0.1-0.8c0-11.4,7.2-21.5,17.9-25.3c1-0.3,1.4-0.6,1.4-0.9
				c0,0,0-0.1,0-0.1c-0.1-0.3-1-0.5-2-0.5c-1.9,0-3.8,0.1-5.6,0.3c-2.8,0.3-5.6,0.8-8.3,1.5c-1.1,0.3-2.2,0.6-3.3,0.9
				c-1.8,0.5-3.6,1.1-5.4,1.8c-6.6,2.5-12.6,6-18,10.5c-9.1,7.6-15.5,17.9-18.4,29.4c-0.8,3.1-1.2,6.2-1.4,9.4c0,0.2,0,0.5,0,0.7
				c-0.1,2.3,0,4.5,0.2,6.8c0.2,2.2,0.6,4.4,1.2,6.5c0.1,0.3,0.2,0.6,0.2,0.8c1.1,3.7,2.7,7.3,4.8,10.6
				C115.2,87.3,116.8,89.4,118.6,91.2z"/>
			<path class="st0" d="M127.7,21.6c-9,7.5-15.3,17.7-18.2,29c-0.8,3.1-1.2,6.2-1.4,9.3c0,0.1,0,0.6,0,0.7c0,0.3,0,1.6,0,1.9
				c0,1.6,0.1,3.2,0.3,4.8c0.2,2.2,0.6,4.3,1.2,6.4l0.2,0.8c1,3.7,2.6,7.2,4.7,10.4c4.8,7.4,12.1,12.9,20.5,15.4
				c1.8,0.5,3.6,0.9,5.5,1.1c1.2,0.1,2.4,0.2,3.6,0.3c7.9,0.1,15.7-2.5,21.9-7.4c1.1-0.8,2.1-1.7,3-2.6c2.5-2.5,4.5-5.4,6.1-8.5
				c2.5-4.8,3.7-10.2,3.7-15.6c0-0.2,0-1.1,0-1.3c-0.1-3.2-0.6-6.3-1.5-9.3c-0.9-2.9-2.2-5.7-3.9-8.2l-0.5-0.8
				c-2.4-3.3-5.4-6.1-8.9-8.2c-4.2-2.5-8.8-4.3-13.6-5.3c0-0.1-0.1-0.7-0.1-0.8s-0.4-0.7-0.4-0.9s0-0.5,0-0.6
				c0.4-10.4,6.6-19.6,16-24l0.4-0.2c0.5-0.2,1-0.5,1.5-0.8l0,0c-0.6-0.2-1.2-0.3-1.8-0.2c-0.6,0-1.3,0-2.1,0.1s-1.8,0.2-2.8,0.3
				c-2.4,0.3-4.7,0.7-7.1,1.3c-0.5,0.1-2.8,0.7-3.3,0.9c-1.8,0.5-3.5,1.1-5.3,1.8C139,13.6,132.9,17.1,127.7,21.6z"/>
			<path d="M162.3,7.6c-2.7,0.3-5.5,0.8-8.1,1.5l-3.3,0.9c-1.8,0.5-3.5,1.1-5.3,1.8c-6.4,2.4-12.4,5.9-17.6,10.3
				c-8.9,7.5-15.1,17.5-18,28.7c-0.8,3-1.2,6.1-1.4,9.2v0.7v1.8c0,1.6,0.1,3.2,0.3,4.7c0.2,2.1,0.6,4.2,1.1,6.2l0.2,0.8
				c1,3.6,2.6,7.1,4.6,10.2c4.7,7.3,11.9,12.7,20.2,15.1c2.9,0.9,6,1.3,9,1.3c12.8,0.2,24.7-6.8,30.5-18.2c2.4-4.8,3.7-10,3.7-15.3
				v-1.3c-0.1-3.1-0.6-6.2-1.5-9.2c-0.9-2.9-2.1-5.6-3.8-8l-0.5-0.8c-2.4-3.2-5.3-5.9-8.7-8c-4.1-2.5-8.7-4.3-13.4-5.2l-0.2-0.8
				l-0.9-0.7v-0.6c0-10.2,5.6-19.7,14.6-24.6c0.6-0.3,1.2-0.6,1.8-0.9C164.6,7.4,163.5,7.5,162.3,7.6z"/>
		</g>
		<g>
			<polygon class="st0" points="10.9,157.8 19.3,179.8 27.4,157.8 37.9,157.8 24.2,191.6 14.3,191.6 0,157.8 			"/>
			<path class="st0" d="M55.7,192.4c-10.8,0-17.7-7.6-17.7-17.7s6.8-17.8,17.7-17.8s17.7,7.6,17.7,17.8S66.7,192.4,55.7,192.4z
				 M55.7,164.7c-5.2,0-7.8,4.6-7.8,10.1s2.6,9.9,7.8,9.9s7.8-4.5,7.8-9.9S61,164.6,55.7,164.7L55.7,164.7z"/>
			<path class="st0" d="M111.2,144v47c-4.7,1-9.6,1.5-14.4,1.5c-11.7,0-19.2-6.2-19.2-17.9c0-9.9,6.8-17.6,17-17.6
				c2.5,0,5,0.4,7.3,1.3V144H111.2z M101.9,166.3c-2-1.1-4.3-1.6-6.6-1.6c-5,0-7.9,4.3-7.9,9.8c0,6.7,4.3,10.1,9.6,10.1
				c1.7,0,3.3-0.1,5-0.4L101.9,166.3z"/>
			<path class="st0" d="M115.5,175.4c0-10.7,7.9-18.5,19.2-18.5c5,0,9.9,0.9,14.5,2.7v32H141l-0.6-3c-1.9,2.2-4.7,3.8-9.1,3.8
				C122.3,192.4,115.5,185.9,115.5,175.4z M139.9,165.6c-1.7-0.4-3.5-0.7-5.3-0.6c-4.5,0-9.2,3.5-9.2,10.1s3.7,9.6,7.8,9.6
				c2.7,0.1,5.2-1.3,6.7-3.5V165.6z"/>
			<path class="st0" d="M167.1,143.1c2.4,0,4.8,0.3,7.2,0.8v8.1c-1.5-0.2-3.9-0.4-5.2-0.4c-2.2,0-3,0.4-3.8,1s-0.8,1.6-0.8,3v2h8.5
				v8.2h-8.6v25.6h-9.3V155c-0.2-3.3,1.1-6.5,3.4-8.9C161,144.1,164,143,167.1,143.1z"/>
			<path class="st0" d="M191.6,192.4c-10.9,0-17.8-7.6-17.8-17.7s6.8-17.8,17.8-17.8s17.6,7.6,17.6,17.8S202.6,192.4,191.6,192.4z
				 M191.6,164.7c-5.2,0-7.8,4.6-7.8,10.1s2.6,9.9,7.8,9.9s7.8-4.5,7.8-9.9S196.9,164.6,191.6,164.7L191.6,164.7z"/>
			<path class="st0" d="M237.5,173c0-5-2.6-7.6-7.7-7.6c-2.3,0-4.6,0.3-6.9,0.8v25.4h-9.3v-32c5.3-1.7,10.7-2.6,16.3-2.7
				c10.8,0,17,5.3,17,14.3v20.4h-9.4L237.5,173z"/>
			<path class="st0" d="M251.2,174.5c0-10.8,6.8-17.7,16.6-17.7s15.7,7.7,15.7,17.2c0,1.3-0.1,3-0.2,3.8h-22.7
				c0.5,4.8,3.6,7.4,9.7,7.4c4,0,8-0.6,11.9-1.8v6.2c-3.8,1.9-8,2.9-12.3,2.9C258.1,192.3,251.2,186,251.2,174.5z M275,171
				c-0.3-3.5-2.8-6.3-7.2-6.3s-6.6,2.4-7,6.3H275z"/>
		</g>
	</g>
</g>
</svg>
