<svg width="512" height="512" viewBox="0 0 512 512" fill="none" xmlns="http://www.w3.org/2000/svg">
<g clip-path="url(#clip0)">
<path d="M241.704 3.26312C237.284 -1.00668 230.239 -0.883578 225.97 3.53644C221.805 7.849 221.805 14.6851 225.97 18.9966L462.895 255.944L225.948 492.869C221.528 497.139 221.405 504.182 225.674 508.603C229.944 513.023 236.988 513.145 241.409 508.877C241.502 508.787 241.592 508.696 241.682 508.603L486.486 263.8C490.829 259.455 490.829 252.411 486.486 248.065L241.704 3.26312Z" fill="#2A2A2F"/>
<path d="M286.214 248.067L41.4107 3.26312C36.9906 -1.00668 29.946 -0.883578 25.6762 3.53644C21.5117 7.849 21.5117 14.6851 25.6762 18.9976L262.601 255.945L25.6542 492.869C21.2342 497.139 21.1122 504.182 25.3809 508.603C29.6507 513.023 36.6944 513.145 41.1154 508.877C41.2083 508.787 41.299 508.696 41.3888 508.603L286.192 263.8C290.541 259.461 290.552 252.418 286.214 248.067Z" fill="#2A2A2F"/>
<path d="M233.826 511.875C227.68 511.886 222.69 506.912 222.678 500.767C222.673 497.804 223.85 494.962 225.948 492.869L462.895 255.944L225.948 19.0195C221.678 14.5995 221.801 7.55483 226.221 3.28504C230.534 -0.879396 237.37 -0.879396 241.681 3.28504L486.485 248.088C490.828 252.433 490.828 259.477 486.485 263.823L241.682 508.625C239.597 510.706 236.772 511.875 233.826 511.875Z" fill="#2A2A2F"/>
<path d="M33.5325 511.875C27.387 511.886 22.3963 506.912 22.3849 500.767C22.3797 497.804 23.5564 494.962 25.6542 492.869L262.601 255.944L25.6542 19.0195C21.3031 14.6684 21.3031 7.6143 25.6542 3.26313C30.0054 -1.08804 37.0595 -1.08804 41.4107 3.26313L286.214 248.067C290.558 252.411 290.558 259.455 286.214 263.801L41.4107 508.603C39.3232 510.697 36.4889 511.875 33.5325 511.875Z" fill="#2A2A2F"/>
</g>
<defs>
<clipPath id="clip0">
<rect width="512" height="512" fill="white"/>
</clipPath>
</defs>
</svg>
