<svg width="208" height="193" viewBox="0 0 208 193" fill="none" xmlns="http://www.w3.org/2000/svg">
<g clip-path="url(#clip0)">
<path d="M118.918 61.2885L104.047 0L88.3652 64.1765L22.4507 59.1584L76.0291 92.3248C83.713 73.3633 96.6241 64.0328 118.918 61.2885ZM109.352 116.997L154.293 155.168L130.496 96.9509H129.738C118.199 97.3298 109.77 101.342 100.623 110.803L53.5784 155.103L98.4798 117.01C98.8457 116.71 104.125 112.541 109.352 117.01V116.997ZM78.6296 93.9452C85.8954 75.6501 98.2315 66.8032 119.78 64.2549L185.564 59.3414L170.497 68.6327L122.381 72.7491C104.543 74.3956 93.8668 81.4131 84.1966 97.7872L53.4739 155.103L85.9085 98.7934C95.3304 82.8375 105.262 76.3166 122.499 74.7354C122.499 74.7354 157.782 71.6906 166.668 70.9457L151.326 80.3938L125.857 82.8898C110.541 84.7323 100.884 90.43 91.3708 103.237L53.4739 155.142L92.9521 104.373C103.524 90.2209 113.861 86.3397 126.053 84.863L147.55 82.7591L129.255 93.9975C117.023 94.4549 108.072 98.7412 98.3883 108.712L53.4739 155.103L78.6296 93.9452Z" fill="#000105"/>
<path d="M145.668 175.79V192.882H140.572V175.79H131.11V171.556H155.234V175.79H145.668ZM122.969 185.355C122.969 187.969 121.205 188.766 117.873 188.766H113.416C109.784 188.766 107.889 187.851 107.889 184.558V179.88C107.889 176.587 109.784 175.659 113.416 175.659H117.873C121.205 175.659 122.969 176.43 122.969 179.07H128.066C128.066 174.47 125.452 171.412 119.584 171.412H111.286C105.158 171.412 102.766 174.744 102.766 179.671V184.754C102.766 189.694 105.158 193 111.286 193H119.611C125.465 193 128.092 189.955 128.092 185.355H122.969ZM173.085 187.355L175.79 192.882H181.814L170.406 171.556H163.767L152.346 192.882H158.383L161.088 187.355H173.085ZM163.101 183.212L167.021 175.058L170.941 183.212H163.101ZM94.3765 186.479C94.3141 185.786 93.9932 185.142 93.4774 184.674C92.9617 184.207 92.2889 183.951 91.593 183.957H80.0018V189.001H91.8805C92.2105 189.001 92.5372 188.936 92.8417 188.809C93.1463 188.682 93.4226 188.495 93.6547 188.261C93.8868 188.026 94.0701 187.748 94.194 187.442C94.3179 187.136 94.3799 186.809 94.3765 186.479V186.479ZM91.2271 175.424H79.9756V180.193H90.9396C91.5959 180.196 92.2292 179.951 92.7134 179.508C93.1976 179.065 93.4974 178.456 93.5532 177.802C93.5567 177.177 93.3126 176.576 92.8743 176.13C92.436 175.685 91.8391 175.431 91.214 175.424H91.2271ZM99.3161 187.067C99.3161 190.282 97.1991 192.882 92.7822 192.882H74.8661V171.556H92.1157C96.402 171.556 98.4275 173.999 98.4275 177.031C98.4647 178.02 98.1926 178.995 97.6492 179.822C97.1058 180.649 96.3181 181.286 95.3958 181.644C96.5511 181.997 97.5594 182.718 98.2671 183.697C98.9748 184.676 99.3432 185.859 99.3161 187.067V187.067ZM199.116 182.585H189.733V175.424H199.116C200.065 175.424 200.976 175.801 201.648 176.472C202.319 177.144 202.696 178.055 202.696 179.004C202.696 179.954 202.319 180.865 201.648 181.536C200.976 182.208 200.065 182.585 199.116 182.585V182.585ZM200.135 171.556H184.663V192.882H189.785V186.479H200.24C205.467 186.479 208.08 183.134 208.08 179.017C208.08 174.901 205.467 171.556 200.24 171.556H200.135ZM26.5801 192.882L12.4014 181.539L26.1358 171.556H18.4519L6.03738 181.409L19.1053 192.882H26.5801ZM5.12262 171.556H0V192.882H5.12262V171.556ZM52.2717 192.882V177.018L36.9299 192.882H30.7619V171.556H35.8584V187.407L51.1217 171.556H57.3028V192.882H52.2717ZM63.6015 171.556H68.7111V192.882H63.5362V171.556H63.6015ZM60.1124 165.479H64.843V169.726H60.1124V165.479ZM67.2606 165.479H71.9911V169.726H67.2998V165.479H67.2606Z" fill="#000105"/>
</g>
<defs>
<clipPath id="clip0">
<rect width="207.976" height="193" fill="white"/>
</clipPath>
</defs>
</svg>
