<svg width="444" height="232" viewBox="0 0 444 232" fill="none" xmlns="http://www.w3.org/2000/svg">
<g clip-path="url(#clip0)">
<path fill-rule="evenodd" clip-rule="evenodd" d="M105.9 11.13H69.39L68.63 36.93H105.31C105.65 27.23 105.9 18.63 105.9 11.13V11.13Z" fill="white"/>
<path fill-rule="evenodd" clip-rule="evenodd" d="M42.5 11.13H6.32C6.49333 35.83 4.38667 93.4767 0 184.07L34.74 184.23C34.74 161.89 37.3267 104.19 42.5 11.13V11.13Z" fill="white"/>
<path fill-rule="evenodd" clip-rule="evenodd" d="M103.54 56.32H68.21C67.2033 113.24 65.63 155.823 63.49 184.07L100.76 184.23C100.513 172.85 101.44 130.213 103.54 56.32V56.32Z" fill="white"/>
<path fill-rule="evenodd" clip-rule="evenodd" d="M122.77 55.57L118.38 81.57L136.51 81.41L133.31 184.11L169.23 184.27L170.15 81.74H193.76L199 55.31H169.56V51.31C169.56 40.52 170.91 34.11 173.56 32.31C176.76 29.86 187.05 28.85 204.33 29.1L209.11 5C194.77 4.33333 184.313 4.33333 177.74 5C165.18 5.85 155.48 9.3 148.74 15.71C142.24 21.87 138.74 33.93 138.03 51.8V55.6L122.77 55.57Z" fill="white"/>
<path fill-rule="evenodd" clip-rule="evenodd" d="M309.61 75.38C298.483 61.38 282.55 54.38 261.81 54.38C244.86 54.05 230.27 58.69 217.81 68.21C201.52 80.69 192.58 98 191 120.24C189.57 140.14 194.62 156.24 206.35 168.38C217.137 179.507 232.453 185.41 252.3 186.09C268.498 186.697 284.708 185.222 300.53 181.7L305.67 155.31C293.95 160.46 279.03 163.07 261.07 163.07C244.46 163.07 234.17 158.26 229.95 148.74C227.44 143.425 226.146 137.618 226.16 131.74L226.92 124.41H321.19L321.52 121.41C322.7 102.35 318.737 87.0167 309.63 75.41L309.61 75.38ZM238.79 83.31C244.27 77.49 251.6 74.54 261.05 74.62C270.41 74.54 277.57 78.16 282.46 85.33C286.162 91.2304 287.713 98.2281 286.85 105.14L286.43 108.35L228.67 108.09C229.263 98.23 232.637 89.97 238.79 83.31Z" fill="white"/>
<path fill-rule="evenodd" clip-rule="evenodd" d="M382.21 90.89L383.05 56.91H342.75L341.99 90.89H382.21Z" fill="white"/>
<path fill-rule="evenodd" clip-rule="evenodd" d="M430.44 36.68C422.6 17.2 417 5 413.58 0H390.14C401.01 19.73 407.84 41.4 410.79 65.09C412.23 76.64 412.73 93.34 412.14 115.09C411.72 142.583 405.82 170.297 394.44 198.23C389.832 209.638 384.488 220.735 378.44 231.45H404.49C411.493 220.862 417.681 209.756 423 198.23C425.53 192.75 427.89 187.23 430 181.54C438.427 158.207 442.867 136.45 443.32 116.27C443.913 86.85 439.613 60.32 430.42 36.68H430.44Z" fill="white"/>
<path fill-rule="evenodd" clip-rule="evenodd" d="M338.03 151.18L337.19 184.91H377.83L378.67 151.18H338.03Z" fill="white"/>
</g>
<defs>
<clipPath id="clip0">
<rect width="443.39" height="231.45" fill="white"/>
</clipPath>
</defs>
</svg>
