<svg width="102" height="32" viewBox="0 0 102 32" fill="none" xmlns="http://www.w3.org/2000/svg">
<path d="M0.529999 16C0.582734 11.7281 2.3291 7.65186 5.38543 4.66678C8.44175 1.68171 12.5581 0.0319631 16.83 0.0799932C21.1037 0.0292924 25.2225 1.67785 28.281 4.66321C31.3395 7.64858 33.0873 11.7264 33.14 16C33.1152 18.1165 32.6736 20.2073 31.8403 22.1531C31.0071 24.0988 29.7986 25.8613 28.2839 27.3397C26.7692 28.8182 24.9781 29.9837 23.0127 30.7696C21.0474 31.5555 18.9465 31.9464 16.83 31.92C15.1061 31.9201 13.3925 31.6536 11.75 31.13C12.2363 28.0272 13.5 25.0979 15.4234 22.615C17.3468 20.1321 19.8672 18.1764 22.75 16.93C23.0937 17.3171 23.5157 17.627 23.988 17.839C24.4603 18.051 24.9723 18.1604 25.49 18.16C26.1861 18.1443 26.8621 17.9236 27.4334 17.5256C28.0047 17.1276 28.446 16.57 28.702 15.9225C28.958 15.275 29.0174 14.5664 28.8727 13.8853C28.728 13.2042 28.3857 12.5809 27.8886 12.0934C27.3915 11.6059 26.7616 11.2758 26.0778 11.1445C25.3941 11.0131 24.6867 11.0863 24.0444 11.3549C23.402 11.6235 22.8531 12.0756 22.4663 12.6546C22.0796 13.2335 21.8721 13.9137 21.87 14.61C18.4408 15.5795 15.2548 17.2617 12.5201 19.5466C9.78544 21.8315 7.56368 24.6678 6 27.87C5.06555 27.0573 4.22982 26.1377 3.51 25.13C3.57473 22.2443 4.32486 19.4154 5.69848 16.8768C7.0721 14.3383 9.02981 12.1628 11.41 10.53C11.7547 10.9051 12.1736 11.2046 12.6401 11.4095C13.1066 11.6143 13.6105 11.72 14.12 11.72C15.0704 11.7307 15.9863 11.364 16.6668 10.7004C17.3473 10.0368 17.7368 9.1304 17.75 8.17999C17.75 7.21726 17.3676 6.29395 16.6868 5.6132C16.006 4.93244 15.0827 4.54999 14.12 4.54999C13.1573 4.54999 12.234 4.93244 11.5532 5.6132C10.8724 6.29395 10.49 7.21726 10.49 8.17999C10.4847 8.27992 10.4847 8.38006 10.49 8.47999C6.28445 9.87609 2.74165 12.7744 0.539999 16.62C0.539999 16.42 0.539999 16.21 0.539999 16" fill="white"/>
<path d="M96.81 20.47V8.07998C96.81 7.91998 96.73 7.84998 96.53 7.84998H93.21C93.01 7.84998 92.93 7.91998 92.93 8.07998V21.36C92.93 23.74 94.03 24.15 96.57 24.15C96.6309 24.175 96.6991 24.175 96.76 24.15C96.82 24.1 96.76 23.98 96.76 23.98L96.81 20.47ZM44.81 20.47V8.07998C44.81 7.91998 44.72 7.84998 44.52 7.84998H41.19C40.99 7.84998 40.91 7.91998 40.91 8.07998V21.36C40.91 23.74 42.01 24.15 44.54 24.15C44.6044 24.1746 44.6756 24.1746 44.74 24.15C44.7564 24.0945 44.7564 24.0355 44.74 23.98L44.81 20.47ZM53.09 24.16C52.93 24.16 52.86 24.09 52.86 23.93V15.21C52.8615 15.1912 52.8589 15.1723 52.8524 15.1547C52.8459 15.137 52.8357 15.1209 52.8223 15.1076C52.809 15.0943 52.793 15.0841 52.7753 15.0776C52.7576 15.0711 52.7388 15.0685 52.72 15.07H52C51.83 15.07 51.77 15 51.77 14.84V12.91C51.77 12.75 51.83 12.68 52 12.68H52.69C52.7088 12.6815 52.7276 12.6789 52.7453 12.6724C52.763 12.6659 52.779 12.6556 52.7923 12.6423C52.8057 12.629 52.8159 12.613 52.8224 12.5953C52.8289 12.5776 52.8315 12.5587 52.83 12.54V11.73C52.83 9.00998 54.08 7.84998 56.77 7.84998H58.52C58.68 7.84998 58.76 7.91998 58.76 8.07998V10.18C58.76 10.35 58.68 10.41 58.52 10.41H57.34C56.34 10.41 56.07 10.67 56.07 11.62V12.54C56.07 12.63 56.07 12.68 56.2 12.68H57.68C57.84 12.68 57.91 12.75 57.91 12.91V14.84C57.91 15 57.84 15.07 57.68 15.07H56.2C56.11 15.07 56.07 15.07 56.07 15.21V23.92C56.07 24.08 55.99 24.15 55.83 24.15L53.09 24.16ZM46.64 10.16C46.45 10.16 46.36 10.1 46.36 9.94998V8.05998C46.36 7.90998 46.45 7.84998 46.64 7.84998H50C50.19 7.84998 50.27 7.90998 50.27 8.05998V9.99998C50.27 10.15 50.19 10.21 50 10.21L46.64 10.16ZM46.64 24.16C46.45 24.16 46.36 24.09 46.36 23.93V12.74C46.36 12.58 46.45 12.51 46.64 12.51H50C50.19 12.51 50.27 12.58 50.27 12.74V23.92C50.27 24.08 50.19 24.16 50 24.16H46.62H46.64ZM71.5 21C71.2575 20.1317 71.1529 19.2307 71.19 18.33C71.1529 17.4292 71.2575 16.5283 71.5 15.66C72.14 13.61 73.9 12.51 76.28 12.51C77.0957 12.4827 77.9053 12.6596 78.6352 13.0245C79.3652 13.3895 79.9924 13.9311 80.46 14.6C80.4821 14.6214 80.4996 14.6471 80.5116 14.6754C80.5236 14.7037 80.5298 14.7342 80.5298 14.765C80.5298 14.7957 80.5236 14.8262 80.5116 14.8545C80.4996 14.8829 80.4821 14.9085 80.46 14.93L78.46 16.24C78.4384 16.2653 78.4116 16.2856 78.3814 16.2996C78.3512 16.3135 78.3183 16.3207 78.285 16.3207C78.2517 16.3207 78.2189 16.3135 78.1886 16.2996C78.1584 16.2856 78.1316 16.2653 78.11 16.24C77.9247 15.9385 77.6661 15.6887 77.3584 15.5139C77.0508 15.3391 76.7039 15.2449 76.35 15.24C75.9688 15.204 75.5873 15.3051 75.274 15.525C74.9606 15.7449 74.7358 16.0693 74.64 16.44C74.4764 17.0627 74.409 17.7068 74.44 18.35C74.4084 18.9931 74.4758 19.6373 74.64 20.26C74.734 20.6317 74.9583 20.9573 75.2721 21.1776C75.586 21.3978 75.9685 21.498 76.35 21.46C76.7042 21.457 77.0519 21.3635 77.3599 21.1885C77.6679 21.0135 77.9261 20.7627 78.11 20.46C78.1316 20.4347 78.1584 20.4143 78.1886 20.4004C78.2189 20.3864 78.2517 20.3792 78.285 20.3792C78.3183 20.3792 78.3512 20.3864 78.3814 20.4004C78.4116 20.4143 78.4384 20.4347 78.46 20.46L80.46 21.77C80.4818 21.7905 80.4992 21.8153 80.511 21.8429C80.5229 21.8704 80.529 21.9 80.529 21.93C80.529 21.9599 80.5229 21.9896 80.511 22.0171C80.4992 22.0446 80.4818 22.0694 80.46 22.09C79.9924 22.7589 79.3652 23.3004 78.6352 23.6654C77.9053 24.0304 77.0957 24.2073 76.28 24.18C73.9 24.18 72.14 23.08 71.5 21.03V21ZM88.71 17.19C88.7292 17.1936 88.7489 17.1924 88.7675 17.1866C88.7862 17.1809 88.8031 17.1707 88.8169 17.1569C88.8307 17.1431 88.8409 17.1261 88.8467 17.1075C88.8524 17.0889 88.8536 17.0691 88.85 17.05C88.853 16.7688 88.8125 16.4888 88.73 16.22C88.601 15.8256 88.339 15.4883 87.9887 15.2658C87.6385 15.0432 87.2218 14.9493 86.81 15C86.3924 14.9775 85.9778 15.082 85.6208 15.2998C85.2638 15.5176 84.9811 15.8384 84.81 16.22C84.7323 16.4899 84.692 16.7691 84.69 17.05C84.69 17.14 84.69 17.19 84.84 17.19H88.71ZM81.71 21.01C81.4333 20.1545 81.3015 19.2589 81.32 18.36C81.2866 17.4559 81.4084 16.5529 81.68 15.69C82.37 13.69 84.25 12.54 86.77 12.54C89.29 12.54 91.19 13.71 91.88 15.67C92.1477 16.7925 92.2521 17.9477 92.19 19.1C92.19 19.26 92.1 19.33 91.92 19.33H84.92C84.82 19.33 84.77 19.38 84.77 19.46C84.7767 19.6726 84.8069 19.8839 84.86 20.09C85.0314 20.5811 85.3691 20.9969 85.8147 21.2653C86.2603 21.5338 86.7857 21.638 87.3 21.56C88.0683 21.5768 88.8251 21.372 89.48 20.97C89.91 20.68 89.91 20.58 90.15 20.77L91.91 22C92.07 22.11 92.06 22.21 91.91 22.32C91.246 22.9525 90.4604 23.4435 89.6009 23.7632C88.7414 24.083 87.826 24.2247 86.91 24.18C84.24 24.15 82.35 23 81.67 21L81.71 21.01ZM66.19 17.16C66.29 17.16 66.34 17.11 66.34 17.02C66.3399 16.7382 66.2961 16.4582 66.21 16.19C66.0758 15.8031 65.813 15.4739 65.4654 15.2573C65.1178 15.0407 64.7065 14.9499 64.3 15C63.8819 14.9747 63.4661 15.078 63.1086 15.2961C62.751 15.5143 62.4688 15.8367 62.3 16.22C62.2203 16.4894 62.1799 16.769 62.18 17.05C62.1764 17.0691 62.1776 17.0889 62.1833 17.1075C62.1891 17.1261 62.1993 17.1431 62.2131 17.1569C62.2269 17.1707 62.2438 17.1809 62.2625 17.1866C62.2811 17.1924 62.3008 17.1936 62.32 17.19L66.19 17.16ZM59.19 20.98C58.9169 20.1239 58.7884 19.2283 58.81 18.33C58.7766 17.4259 58.8984 16.5229 59.17 15.66C59.85 13.66 61.73 12.51 64.25 12.51C66.77 12.51 68.68 13.68 69.36 15.64C69.6328 16.7616 69.7373 17.9176 69.67 19.07C69.67 19.23 69.58 19.3 69.41 19.3H62.41C62.3918 19.2968 62.3731 19.2979 62.3553 19.3031C62.3376 19.3084 62.3213 19.3177 62.3078 19.3303C62.2942 19.3428 62.2838 19.3584 62.2772 19.3757C62.2707 19.393 62.2682 19.4116 62.27 19.43C62.2688 19.6426 62.2957 19.8544 62.35 20.06C62.525 20.5508 62.8649 20.9657 63.3117 21.2338C63.7586 21.5019 64.2846 21.6066 64.8 21.53C65.5683 21.5468 66.3251 21.342 66.98 20.94C67.41 20.65 67.4 20.55 67.64 20.74L69.39 22C69.56 22.11 69.54 22.21 69.39 22.32C68.725 22.951 67.9393 23.4411 67.08 23.7608C66.2208 24.0804 65.3058 24.223 64.39 24.18C61.72 24.18 59.83 23.03 59.15 21.01L59.19 20.98ZM101.51 20.47V8.07998C101.51 7.91998 101.43 7.84998 101.23 7.84998H97.87C97.67 7.84998 97.59 7.91998 97.59 8.07998V21.36C97.59 23.74 98.69 24.15 101.22 24.15C101.284 24.1746 101.356 24.1746 101.42 24.15C101.436 24.0945 101.436 24.0355 101.42 23.98V20.47H101.51Z" fill="white"/>
</svg>
