<svg xmlns="http://www.w3.org/2000/svg" viewBox="0 0 443.39 231.45">
  <defs>
    <style>
      .cls-1 {
        fill: #000105;
        fill-rule: evenodd;
      }
    </style>
  </defs>
  <title>life-black</title>
  <g id="Слой_2" data-name="Слой 2">
    <g id="Слой_1-2" data-name="Слой 1">
      <path class="cls-1" d="M105.9,11.13H69.39l-.76,25.8h36.68c.34-9.7.59-18.3.59-25.8Z"/>
      <path class="cls-1" d="M42.5,11.13H6.32Q6.58,48.18,0,184.07l34.74.16q0-33.51,7.76-173.1Z"/>
      <path class="cls-1" d="M103.54,56.32H68.21Q66.7,141.7,63.49,184.07l37.27.16q-.37-17.07,2.78-127.91Z"/>
      <path class="cls-1" d="M122.77,55.57l-4.39,26,18.13-.16-3.2,102.7,35.92.16.92-102.53h23.61L199,55.31H169.56v-4c0-10.79,1.35-17.2,4-19,3.2-2.45,13.49-3.46,30.77-3.21L209.11,5Q187.6,4,177.74,5c-12.56.85-22.26,4.3-29,10.71-6.5,6.16-10,18.22-10.71,36.09v3.8Z"/>
      <path class="cls-1" d="M309.61,75.38q-16.69-21-47.8-21c-16.95-.33-31.54,4.31-44,13.83C201.52,80.69,192.58,98,191,120.24c-1.43,19.9,3.62,36,15.35,48.14q16.18,16.69,45.95,17.71a189.36,189.36,0,0,0,48.23-4.39l5.14-26.39c-11.72,5.15-26.64,7.76-44.6,7.76-16.61,0-26.9-4.81-31.12-14.33a39.59,39.59,0,0,1-3.79-17l.76-7.33h94.27l.33-3q1.77-28.59-11.89-46Zm-70.82,7.93c5.48-5.82,12.81-8.77,22.26-8.69,9.36-.08,16.52,3.54,21.41,10.71a30.23,30.23,0,0,1,4.39,19.81l-.42,3.21-57.76-.26q.89-14.79,10.12-24.78Z"/>
      <polygon class="cls-1" points="382.21 90.89 383.05 56.91 342.75 56.91 341.99 90.89 382.21 90.89 382.21 90.89"/>
      <path class="cls-1" d="M430.44,36.68C422.6,17.2,417,5,413.58,0H390.14c10.87,19.73,17.7,41.4,20.65,65.09,1.44,11.55,1.94,28.25,1.35,50q-.63,41.24-17.7,83.14a283.85,283.85,0,0,1-16,33.22h26.05A250.53,250.53,0,0,0,423,198.23c2.53-5.48,4.89-11,7-16.69q12.64-35,13.32-65.27.89-44.13-12.9-79.59Z"/>
      <polygon class="cls-1" points="338.03 151.18 337.19 184.91 377.83 184.91 378.67 151.18 338.03 151.18 338.03 151.18"/>
    </g>
  </g>
</svg>
