<svg width="284" height="193" viewBox="0 0 284 193" fill="none" xmlns="http://www.w3.org/2000/svg">
<path fill-rule="evenodd" clip-rule="evenodd" d="M170.98 6.07C169.76 5.48 168.52 4.97 167.26 4.48V4.52C151.37 -1.57721 133.723 -1.19896 118.109 5.57348C102.495 12.3459 90.16 24.9723 83.7539 40.7401C77.3479 56.508 77.3818 74.1594 83.8484 89.9025C90.3149 105.646 102.698 118.224 118.338 124.937C133.978 131.649 151.627 131.96 167.493 125.801C183.359 119.643 196.177 107.508 203.194 92.0017C210.21 76.4958 210.864 58.8565 205.017 42.8731C199.169 26.8897 187.286 13.8374 171.92 6.52L170.98 6.07ZM134.68 100.84C128.563 99.0588 123.008 95.7319 118.55 91.18C116.773 89.3512 115.185 87.3477 113.81 85.2C111.721 81.9337 110.121 78.3794 109.06 74.65C108.98 74.37 108.9 74.09 108.83 73.8C108.259 71.6752 107.858 69.5084 107.63 67.32C107.386 65.0788 107.313 62.8223 107.41 60.57V59.88C107.584 56.7061 108.056 53.5555 108.82 50.47C111.753 38.9989 118.197 28.7306 127.25 21.1C132.608 16.5946 138.695 13.0369 145.25 10.58C147.06 9.89 148.86 9.28 150.62 8.76C151.75 8.43 152.87 8.13 153.96 7.86C156.689 7.19065 159.458 6.69301 162.25 6.37C164.125 6.15523 166.013 6.06171 167.9 6.09C168.9 6.11 169.8 6.28 169.9 6.6C169.904 6.63322 169.904 6.66677 169.9 6.7C169.85 6.93 169.45 7.21 168.45 7.56C163.214 9.41284 158.68 12.8417 155.471 17.3756C152.262 21.9094 150.536 27.3256 150.53 32.88C150.53 33.0161 150.543 33.1523 150.555 33.2871V33.2872L150.555 33.2875C150.568 33.42 150.58 33.5512 150.58 33.68C155.461 34.6693 160.131 36.5035 164.38 39.1C167.934 41.261 171.024 44.106 173.47 47.47C173.583 47.6266 173.692 47.7872 173.801 47.9492C173.867 48.0458 173.933 48.1429 174 48.24C175.722 50.8244 177.047 53.6525 177.93 56.63C178.845 59.7144 179.355 62.9043 179.45 66.12V67.4C179.473 72.6521 178.3 77.8404 176.018 82.5708C173.736 87.3013 170.405 91.4494 166.28 94.7C158.919 100.475 149.57 103.096 140.28 101.99C138.385 101.763 136.511 101.378 134.68 100.84Z" fill="white"/>
<path d="M10.94 157.75L19.31 179.82L27.4 157.75H37.88L24.18 191.59H14.25L0 157.75H10.94Z" fill="white"/>
<path d="M55.72 192.41C44.87 192.41 38.06 184.78 38.06 174.67C38.06 164.56 44.87 156.92 55.72 156.92C66.57 156.92 73.46 164.56 73.46 174.67C73.46 184.78 66.66 192.41 55.72 192.41ZM55.72 164.65C50.48 164.65 47.9 169.25 47.9 174.76C47.9 180.27 50.48 184.69 55.72 184.69C60.96 184.69 63.53 180.19 63.53 174.76C63.53 169.33 61 164.65 55.72 164.65Z" fill="white"/>
<path d="M111.16 144V191C106.41 191.986 101.571 192.478 96.72 192.47C85.05 192.47 77.51 186.31 77.51 174.55C77.51 164.62 84.31 156.98 94.51 156.98C97.017 156.972 99.5056 157.409 101.86 158.27V144H111.16ZM101.87 166.25C99.8294 165.182 97.5527 164.646 95.25 164.69C90.25 164.69 87.35 169.01 87.35 174.53C87.35 181.24 91.67 184.64 96.91 184.64C98.5848 184.68 100.259 184.556 101.91 184.27L101.87 166.25Z" fill="white"/>
<path d="M115.48 175.41C115.48 164.74 123.39 156.92 134.7 156.92C139.659 156.957 144.573 157.861 149.22 159.59V191.59H141L140.36 188.59C138.42 190.8 135.66 192.36 131.25 192.36C122.28 192.41 115.48 185.89 115.48 175.41ZM139.85 165.57C138.104 165.133 136.31 164.915 134.51 164.92C130.01 164.92 125.32 168.42 125.32 175.04C125.32 181.66 129 184.69 133.13 184.69C134.453 184.719 135.762 184.415 136.937 183.805C138.111 183.195 139.113 182.299 139.85 181.2V165.57Z" fill="white"/>
<path d="M167.15 143.13C169.561 143.175 171.962 143.453 174.32 143.96V152.05C172.85 151.87 170.37 151.68 169.08 151.68C166.88 151.68 166.08 152.05 165.31 152.68C164.54 153.31 164.49 154.24 164.49 155.68V157.68H173V165.87H164.45V191.52H155.2V155C155.117 153.36 155.377 151.721 155.962 150.187C156.548 148.653 157.446 147.258 158.6 146.09C160.972 144.056 164.028 142.998 167.15 143.13Z" fill="white"/>
<path d="M191.61 192.41C180.67 192.41 173.86 184.78 173.86 174.67C173.86 164.56 180.67 156.92 191.61 156.92C202.55 156.92 209.26 164.56 209.26 174.67C209.26 184.78 202.55 192.41 191.61 192.41ZM191.61 164.65C186.37 164.65 183.79 169.25 183.79 174.76C183.79 180.27 186.37 184.69 191.61 184.69C196.85 184.69 199.42 180.19 199.42 174.76C199.42 169.33 196.85 164.65 191.61 164.65Z" fill="white"/>
<path d="M237.49 173C237.49 168 234.91 165.37 229.76 165.37C227.44 165.395 225.13 165.673 222.87 166.2V191.58H213.58V159.58C218.832 157.836 224.326 156.935 229.86 156.91C240.61 156.91 246.86 162.25 246.86 171.17V191.58H237.48L237.49 173Z" fill="white"/>
<path d="M251.19 174.49C251.19 163.73 257.99 156.83 267.83 156.83C277.67 156.83 283.55 164.56 283.55 174.03C283.55 175.31 283.46 177.03 283.37 177.79H260.66C261.12 182.58 264.24 185.15 270.4 185.15C274.423 185.134 278.421 184.514 282.26 183.31V189.47C278.453 191.366 274.253 192.342 270 192.32C258.08 192.32 251.19 186 251.19 174.49ZM275 171C274.72 167.51 272.24 164.66 267.83 164.66C263.42 164.66 261.21 167.05 260.83 171H275Z" fill="white"/>
</svg>
