<svg width="120" height="121" viewBox="0 0 120 121" fill="none" xmlns="http://www.w3.org/2000/svg">
<path fill-rule="evenodd" clip-rule="evenodd" d="M61.567 120.534C63.15 119.702 66.783 118.113 67.279 117.285C67.443 117.122 69.261 112.765 71.384 108.028C72.137 106.32 85.596 76.666 85.596 75.684C84.788 75.684 81.348 76.175 81.022 76.501L71.874 96.266L69.587 77.808C65.639 77.576 61.349 77.808 57.336 77.808L61.076 120.534H61.567ZM89.189 74.377C96.05 73.071 100.624 71.601 106.178 69.477C112.712 66.863 117.612 63.433 119.246 60.329C119.736 59.186 119.736 58.859 119.736 57.879C119.736 56.246 119.409 55.429 118.102 54.122C116.796 52.652 114.509 51.345 111.895 50.365C111.078 50.038 110.262 49.875 110.098 49.875H109.935L111.405 50.528C114.182 51.998 115.489 53.305 116.306 55.102C116.796 56.082 116.796 56.246 116.796 57.389C116.632 59.186 115.816 60.656 114.182 62.29C111.895 64.576 108.955 66.21 103.401 68.497C89.319 73.913 67.468 76.93 52.272 75.031C41.981 73.887 35.774 71.764 32.67 68.334C30.547 66.047 30.547 63.596 32.833 60.819C33.16 60.166 33.977 59.349 34.63 58.859L35.61 58.042H35.447C34.957 58.042 32.343 60.003 30.873 61.309C29.893 62.453 29.24 63.106 28.913 63.923C26.953 68.17 29.73 71.601 36.917 74.214C41.654 75.684 47.535 76.664 55.049 77.154C66.45 77.755 78.018 76.612 89.189 74.377ZM86.739 72.581C86.739 72.581 87.229 71.764 87.556 70.947C87.883 70.13 89.026 67.353 90.169 64.903C98.99 44.484 110.752 16.878 111.568 14.101C111.732 13.611 111.895 13.121 111.895 12.958L111.732 12.794H111.405C109.772 12.794 94.09 16.551 93.6 17.041L93.437 17.205L95.233 17.041C99.48 16.715 100.951 17.205 101.767 18.838C102.584 20.798 100.951 27.823 97.357 36.48C95.723 40.727 92.946 47.098 87.393 60.493C86.897 61.654 82.165 72.158 82.165 73.397C82.693 73.397 86.673 72.744 86.739 72.581ZM45.738 7.567C53.906 15.571 60.603 30.436 65.177 51.182C67.137 60.166 69.587 74.377 69.097 74.704C68.934 75.031 57.336 75.031 57.009 74.704C57.009 74.704 56.519 73.071 56.193 70.947C53.361 53.33 43.864 0.244003 16.172 10.017C6.781 13.332 5.941 19.101 0.163 24.882H0V24.719L0.817 22.922C4.9 14.755 9.638 8.384 14.702 4.627C17.478 2.503 20.092 1.36 23.359 0.543004C32.11 -1.207 38.911 1.308 45.738 7.567Z" fill="#9B9B9B" fill-opacity="0.941176"/>
</svg>
