<?xml version="1.0" encoding="utf-8"?>
<svg version="1.1" id="Слой_1" xmlns="http://www.w3.org/2000/svg" xmlns:xlink="http://www.w3.org/1999/xlink" x="0px" y="0px" viewBox="0 0 1059.3 1059.3" style="enable-background:new 0 0 1059.3 1059.3; fill: #fff;" xml:space="preserve">
<g>
	<path class="st0" d="M926.8,274.8c0-27.4-22.3-49.7-49.7-49.7H774C736.9,113.7,646.8,39.6,546,39.6
		c-100.5,0-190.9,74.1-227.9,185.5H182c-27.4,0-49.7,22.2-49.7,49.7L82.7,969.9c0,27.4,22.3,49.7,49.7,49.7h794.5
		c27.3,0,49.7-22.3,49.7-49.7L926.8,274.8L926.8,274.8z M548.7,69.9c77.1,0,158,70,191.5,155.2l-387.8-0.6
		c33.5-85.3,108.8-155.2,185.9-155.2L548.7,69.9z M929.3,981.9l-798.1,0.9c-12-1-11.6-10.6-12-13l49-698l0.1,5.6l0.1-8.6
		c0-2.9,10.7-10.5,13.6-10.5l694.6-0.7c10.9,0.6,12.2,14.2,12.2,17.1l0.1-5.5l2.5,42.3l48.2,659.1c-0.4,2.5-2.5,9.4-5.2,9.4
		L929.3,981.9z M280.2,357.7c0-13,5.2-25.7,14.3-34.8c9.1-9,22-14.3,34.8-14.3c13,0,25.6,5.3,34.8,14.3c9,9.2,14.4,21.8,14.4,34.8
		c0,12.8-5.3,25.5-14.4,34.7c-9.1,9.2-21.8,14.5-34.8,14.5c-12.8,0-25.6-5.3-34.8-14.5C285.4,383.4,280.2,370.6,280.2,357.7
		L280.2,357.7z M684,357.7c0-13,5.3-25.7,14.4-34.8c9-9,21.9-14.3,34.7-14.3c12.8,0,25.6,5.3,34.7,14.3c9,9.2,14.4,21.8,14.4,34.8
		c0,12.8-5.4,25.5-14.4,34.7c-9.1,9.2-21.9,14.5-34.7,14.5c-12.8,0-25.6-5.3-34.7-14.5C689.3,383.4,684,370.6,684,357.7L684,357.7z"
		/>
</g>
</svg>
